# xmcd
#
# Track frame offsets:
#	150
#	19950
#	33525
#	54600
#	72900
#	89700
#	111300
#	124050
#	136275
#	148050
#	159300
#	187350
#	201225
#	215550
#	225525
#	241125
#	257475
#	272250
#
# Disc length: 3807 seconds
#
# Revision: 2
# Processed by: cddbd v1.5.2PL0 Copyright (c) Steve Scherf et al.
# Submitted via: audiograbber 1.83.01
#
DISCID=110edd12
DTITLE=Various Artist - DKG037
DYEAR=1900
DGENRE=Karaoke
TTITLE0=Richie, Lionel And Ross, Diana - Endless Love
TTITLE1=Mathis, J And D Williams - Too Much, Too Little, Too Late
TTITLE2=Houston, Whitney - You Give Good Love
TTITLE3=Jackson, Michael - PYT (Pretty Young Thing)
TTITLE4=King, Evelyn Champagne - Love Come Down
TTITLE5=Lynyrd Skynyrd - Sweet Home Alabama
TTITLE6=Creedence Clearwater Revival - Have You Ever Seen The Rain
TTITLE7=Sinatra, Nancy And Frank - Something Stupid
TTITLE8=Chandler, Gene - Duke Of Earl
TTITLE9=Hill, Jessie - Ooh Poo Pah Doo
TTITLE10=Dylan, Bob - Like A Rolling Stone
TTITLE11=Peter, Paul And Mary - Blowin' In The Wind
TTITLE12=Jones, Tom - Green, Green Grass Of Home
TTITLE13=Kingston Trio - Tom Dooley
TTITLE14=Creedence Clearwater Revival - Cotton Fields (The Cotton Song)
TTITLE15=Four Preps - Greensleeves
TTITLE16=Traditional - Let Me Call You Sweetheart
TTITLE17=Traditional - Frankie And Johnny
EXTD=
EXTT0=
EXTT1=
EXTT2=
EXTT3=
EXTT4=
EXTT5=
EXTT6=
EXTT7=
EXTT8=
EXTT9=
EXTT10=
EXTT11=
EXTT12=
EXTT13=
EXTT14=
EXTT15=
EXTT16=
EXTT17=
PLAYORDER=
